<svg xmlns="http://www.w3.org/2000/svg" xmlns:xlink="http://www.w3.org/1999/xlink" style="vertical-align:-2.38ex" width="31.594ex" height="5.884ex" viewBox="0 -1508.9 13602.8 2533.5"><defs><path id="j" stroke-width="1" d="M213 578l-13-5q-14-5-40-10t-58-7H83v46h19q47 2 87 15t56 24 28 22q2 3 12 3 9 0 17-6V361l1-300q7-7 12-9t24-4 62-2h26V0h-11q-21 3-159 3-136 0-157-3H88v46h64q16 0 25 1t16 3 8 2 6 5 6 4v517z"/><path id="a" stroke-width="1" d="M118-162q2 0 6-2t11-3 12-1q13 0 24 13t16 29q10 27 34 153t46 240 22 115v3h-47q-47 0-50 2-4 3-4 10l7 28q2 5 8 5t47 1q48 0 48 1 0 2 9 50t12 58q37 165 146 165 37-2 61-22t24-53q0-36-21-52t-42-17q-44 0-44 42 0 19 11 33t24 21l9 5q-16 6-30 6-12 0-23-10t-15-28q-7-29-16-78t-16-83-7-36q0-2 55-2 45 0 52-1t11-6q1-4-2-17t-5-16q-2-5-9-5t-54-1h-56l-23-122Q301 15 282-47q-27-85-70-126-37-32-73-32-32 0-58 19t-26 54q0 37 21 54t42 17q44 0 44-42 0-19-11-33t-24-21l-9-5z"/><path id="c" stroke-width="1" d="M52 289q7 42 54 97t116 56q35 0 64-18t43-45q42 63 101 63 37 0 64-22t28-59q0-29-14-47t-27-22-23-4q-19 0-31 11t-12 29q0 46 50 63-11 13-40 13-13 0-19-2-38-16-56-66-60-221-60-258 0-28 16-40t35-12q37 0 73 33t49 81q3 10 6 11t16 2h4q15 0 15-8 0-1-2-11-16-57-62-101T333-11q-70 0-106 63-41-62-94-62h-6q-49 0-70 26T35 71q0 32 19 52t45 20q43 0 43-42 0-20-12-35t-23-20-13-5l-3-1q0-1 6-4t16-7 19-3q36 0 62 45 9 16 23 68t28 108 16 66q5 27 5 39 0 28-15 40t-34 12q-40 0-75-32t-49-82q-2-9-5-10t-16-2H58q-6 6-6 11z"/><path id="d" stroke-width="1" d="M139-249h-2q-12 0-18 14v486l1 486q10 13 19 13 13 0 20-15v-970q-8-14-18-14h-2z"/><path id="e" stroke-width="1" d="M23 287q1 3 2 8t5 22 10 31 15 33 20 30 26 22 33 9q75 0 96-64l10 9q62 55 118 55 65 0 102-47t37-114q0-108-76-199T249-10q-22 0-39 6-11 5-23 15t-19 17l-7 8q-1-1-22-87t-21-87q0-6 8-7t37-3h25q6-7 6-9t-3-18q-3-12-6-15t-13-4h-11q-9 0-34 1t-62 1q-70 0-89-2h-8q-7 7-7 11 2 27 13 35h20q34 1 39 12 3 6 61 239t61 247q1 5 1 14 0 41-25 41-22 0-37-28t-23-61-12-36q-2-2-16-2H29q-6 6-6 9zm155-185q22-76 74-76 30 0 58 23t46 58q18 34 36 108t19 110v6q0 74-61 74-11 0-22-3t-22-9-20-13-17-15-15-15-11-14-8-10l-3-4q0-1-3-14t-11-44-14-52q-26-106-26-110z"/><path id="f" stroke-width="1" d="M60 749l4 1h22l28-24q94-85 137-212t43-264q0-68-10-131T261 12t-37-88-38-67-41-51-32-33-23-19l-4-4H63q-3 0-5 3t-3 9q1 1 11 13Q221-64 221 250T66 725q-10 12-11 13 0 8 5 11z"/><path id="g" stroke-width="1" d="M56 347q0 13 14 20h637q15-8 15-20 0-11-14-19l-318-1H72q-16 5-16 20zm0-194q0 15 16 20h636q14-10 14-20 0-13-15-20H70q-14 7-14 20z"/><path id="i" stroke-width="1" d="M33 157q0 101 76 192t171 92q60 0 92-52 1 1 5 6t11 11 16 12q34 24 46 24 4 0 7-3t3-5q0-9-69-285-71-284-71-288 0-8 45-9h25q6-8 6-9t-3-18q-4-13-10-19h-13q-31 2-108 2h-88q-14 0-17-1-14 0-14 8 0 3 2 15 4 16 7 19t20 3q48 0 58 7 8 5 28 88t21 85q0 1-7-3-48-39-100-39-55 0-97 40T33 157zm319 169q-23 79-75 79-35 0-67-31t-50-81q-29-79-41-164v-11q0-8-1-12 0-45 18-62t43-18q54 0 111 72l8 11 54 217z"/><path id="b" stroke-width="1" d="M94 250q0 69 10 131t23 107 37 88 38 67 42 52 33 34 25 21h17q14 0 14-9 0-3-17-21t-41-53-49-86-42-138-17-193 17-192 41-139 49-86 42-53 17-21q0-9-15-9h-16l-28 24q-94 85-137 212T94 250z"/><path id="k" stroke-width="1" d="M84 237v13l14 20h581q15-8 15-20t-15-20H98q-14 7-14 20z"/><path id="l" stroke-width="1" d="M78 35v25l16 43 43 18q28 0 50-25t23-88q0-35-9-68t-21-57-26-41-24-27-13-9q-4 0-13 9t-9 13q0 4 11 16t25 30 26 50 16 73V9l-1-1q-2-1-5-2t-6-3-9-2-12-1q-27 0-44 17z"/><path id="n" stroke-width="1" d="M201 0q-12 3-99 3-76 0-85-3h-6v46h14q23 1 42 6t29 9 25 17 18 18 21 26 20 28l46 60-58 78q-9 13-19 27t-16 21-11 15-9 12-6 7-7 6-6 3-6 2-8 2q-6 0-36 2H16v46h7q36-2 103-2 93 0 103 2h8v-46q-36-4-36-16 0-2 10-16t28-38 29-41l4-4 25 34q32 41 32 54 0 6-2 11t-5 7-5 4-7 4l-3 1h-5v46h7q15-3 99-3 79 0 85 3h6v-46h-7q-49 0-81-17-17-8-34-27t-65-84l-16-21 62-85q66-90 71-94t17-7q18-4 53-4h17V0h-14q-8 1-20 1t-25 1-25 0-18 1h-37q-26 0-50-2l-23-1h-9v46h3q11 0 22 5t11 12q0 2-40 57l-41 55q-1-1-31-42t-34-45q-4-5-4-14 0-11 7-19t18-9q2 0 2-23V0h-7z"/><path id="m" stroke-width="1" d="M96 585q56 81 153 81 48 0 96-26t78-92q37-83 37-228 0-155-43-237-20-42-55-67t-61-31-51-7q-26 0-52 6t-61 32-55 67q-43 82-43 237 0 174 57 265zm225 12q-30 32-71 32-42 0-72-32-25-26-33-72t-8-192q0-158 8-208t36-79q28-30 69-30 40 0 68 30 29 30 36 84t8 203q0 145-8 191t-33 73z"/><path id="o" stroke-width="1" d="M78 370q0 24 17 42t43 18q24 0 42-16t19-43q0-25-17-43t-43-18-43 17-18 43zm0-310q0 25 16 43t43 18q65 0 65-113 0-52-19-102t-39-75-26-25q-3 0-12 8t-11 12q-1 3 12 19t30 48 23 69q1 6 2 16t3 18 0 8q0 1-4 0t-19-4q-32 0-48 18T78 60z"/><path id="p" stroke-width="1" d="M166-215h-7l-12 3-6 8-2 7q0 7 5 14l162 316H70q-14 7-14 20 0 15 16 20h255l79 154H72q-16 5-16 20 0 13 14 20h356q171 335 176 340 3 9 16 9 7 0 12-4t6-9 2-7q0-4-167-329h236q15-8 15-20 0-11-14-19l-257-1-80-154h337q14-10 14-20 0-13-15-20H351Q175-210 170-212q-4-3-11-3z"/><path id="q" stroke-width="1" d="M78 60q0 24 17 42t43 18q24 0 42-16t19-43q0-25-17-43T139 0 96 17 78 60z"/><path id="h" stroke-width="1" d="M618-943l-6-6h-30l-14 6q-96 40-157 102t-79 138q-5 21-5 50t-2 303q-1 322-2 332-6 42-22 79t-37 63-43 47-42 34-32 20-15 9q-2 4-2 16v8q0 3 1 6t1 3 2 2 5 3 5 3q63 33 112 92 54 69 67 152 1 10 2 332 1 273 1 303t6 51q37 153 234 238l16 7h30l6-6v-15q0-16-2-18l-8-5q-9-4-23-13t-33-21-37-29-36-38-30-48-20-57q-4-20-4-48t-2-301q-1-272-1-302t-6-51q-9-39-28-74t-42-60-49-46-47-34-36-20-17-10l-9-3 17-9q85-42 140-104T416 3q5-21 5-51t2-301v-123q1-205 5-222 1-3 1-5 5-23 14-44t22-39 26-34 28-29 29-23 26-18 21-13 15-9l6-2q2-2 2-18v-15z"/></defs><g fill="currentColor" stroke="currentColor" stroke-width="0" transform="scale(1 -1)"><use xlink:href="#a"/><g transform="translate(717)"><use xlink:href="#b"/><use x="389" xlink:href="#c"/><use x="1239" xlink:href="#d"/><use x="1796" xlink:href="#e"/><use x="2299" xlink:href="#f"/></g><use x="3684" xlink:href="#g"/><g transform="translate(4740)"><use xlink:href="#h"/><g transform="translate(903 540)"><use xlink:href="#e"/><use x="712" y="513" transform="scale(.707)" xlink:href="#c"/><g transform="translate(1008)"><use xlink:href="#i"/><g transform="matrix(.707 0 0 .707 464 362)"><use xlink:href="#j"/><use x="500" xlink:href="#k"/><use x="1279" xlink:href="#c"/></g></g><use x="2882" xlink:href="#l"/></g><g transform="translate(903 -660)"><use xlink:href="#m"/><use x="500" xlink:href="#l"/></g><g><g transform="translate(5063 540)"><use xlink:href="#n"/><use x="528" xlink:href="#g"/><use x="1307" xlink:href="#m"/><use x="1807" xlink:href="#l"/><use x="2086" xlink:href="#j"/><use x="2586" xlink:href="#o"/></g><g transform="translate(5063 -660)"><use xlink:href="#c"/><use x="850" xlink:href="#p"/><use x="1906" xlink:href="#m"/><use x="2407" xlink:href="#l"/><g transform="translate(2852)"><use xlink:href="#j"/><use x="500" xlink:href="#q"/></g></g></g></g></g></svg>