<svg xmlns="http://www.w3.org/2000/svg" xmlns:xlink="http://www.w3.org/1999/xlink" style="vertical-align:-.755ex" width="1.402ex" height="2.009ex" viewBox="0 -540.2 603.5 865.1"><defs><path id="a" stroke-width="1" d="M58-216q-14 0-24 8t-11 22q0 10 73 302t77 298q13 28 46 28 12-1 20-7t10-12 2-10q0-12-31-134t-33-137q-2-11-2-35v-8q0-73 67-73 9 0 18 1t17 4 15 7 13 7 12 10 11 10 10 12 8 11 9 12l7 10 36 143q36 142 40 151 13 27 43 27 13 0 21-7t11-12 2-10L449 84q-1-5-1-16 0-25 7-33t21-9q9 1 20 9 21 20 41 96 6 20 10 21 2 1 10 1h4q19 0 19-9 0-6-5-27t-20-54-32-50Q510 0 491-8q-8-2-24-2-21 0-38 6t-27 15-17 18-9 15-2 7l-6-6q-6-6-18-15t-26-18-36-16-42-7q-47 0-93 23l-24-97q-21-82-25-95t-12-22q-16-14-34-14z"/></defs><use fill="currentColor" stroke="currentColor" stroke-width="0" transform="scale(1 -1)" xlink:href="#a"/></svg>